<svg width="237" height="61" viewBox="0 0 237 61" fill="none" xmlns="http://www.w3.org/2000/svg">
<mask id="mask0_141_563" style="mask-type:luminance" maskUnits="userSpaceOnUse" x="0" y="0" width="53" height="61">
<path d="M52.8065 0.835617H0V60.4151H52.8065V0.835617Z" fill="white"/>
</mask>
<g mask="url(#mask0_141_563)">
<mask id="mask1_141_563" style="mask-type:luminance" maskUnits="userSpaceOnUse" x="0" y="1" width="53" height="59">
<path d="M52.7285 1.1228H0.328644V59.7361H52.7285V1.1228Z" fill="white"/>
</mask>
<g mask="url(#mask1_141_563)">
<path d="M24.4329 22.5741L27.5855 23.3792H31.1322L33.1026 21.7689V18.951L32.7085 16.5356L31.5263 15.3279L32.3144 14.9254L38.6197 14.5228L39.4079 13.7177L40.5901 14.5228L41.7723 17.7433L45.319 21.7689C45.319 21.7689 46.0139 23.3316 46.8953 23.7817C47.6835 24.1843 47.9899 24.1134 48.4717 24.1843C49.5806 24.3476 51.2302 23.3792 51.2302 23.3792V26.1972L48.4717 29.8202L44.1368 34.651L43.3487 35.8586L44.1368 40.6894L44.5309 43.1049L42.9546 45.1176L40.5901 46.7279L39.8019 48.7408L39.4079 50.7535L38.6197 51.9612L38.2256 52.3638L37.4375 53.9741L34.6789 57.1945L30.7381 58.4022H27.9795L26.7973 54.7792L25.221 50.7535L24.4329 47.9356L23.2507 45.9228L24.0388 42.7023L24.4329 39.0792L22.4624 35.4561L20.8861 32.6382L21.6743 31.0279H25.221L26.7973 28.6125L24.4329 22.5741Z" fill="#00A0F6"/>
<path d="M20.3514 1.76362C19.9017 2.15819 18.8096 2.48699 17.6213 2.61852C16.4972 2.75004 15.1162 3.04597 14.5059 3.30902C13.9278 3.57206 12.9322 3.76935 12.3219 3.76935C11.5833 3.76935 10.973 4.0324 10.4591 4.55848C10.0094 5.01882 9.33496 5.41337 8.94954 5.47914C8.37151 5.54489 8.17872 5.84082 8.05033 6.86013C7.92178 7.97806 7.66489 8.274 6.12323 9.32615C5.15971 9.98378 4.0356 11.0031 3.6502 11.6278C3.23265 12.2526 2.5903 12.9102 2.17278 13.1075C1.40195 13.5349 1.04866 14.8172 1.59466 15.3763C1.78736 15.5735 1.94795 16.7901 1.94795 18.0725C1.94795 20.2754 1.88372 20.4728 1.14501 20.8016C0.149368 21.2618 0.0530142 22.6429 0.984433 23.169C1.33772 23.3663 1.75525 23.432 1.91583 23.3334C2.30125 23.1032 3.55383 25.1747 3.55383 26.0296C3.55383 26.8187 4.16406 27.4435 4.93489 27.4435C5.25607 27.4435 5.89841 27.9037 6.34805 28.4628L7.18313 29.449L10.1059 29.2518C11.7117 29.1533 13.5746 28.8902 14.2169 28.6931C15.2447 28.397 15.5336 28.397 16.0475 28.8902C16.5293 29.3177 16.8184 29.3835 17.3001 29.1204C17.6534 28.9231 18.0389 28.9231 18.1994 29.0875C18.36 29.2518 18.9382 29.4162 19.4521 29.482L20.4156 29.5807L20.3192 31.6523C20.2229 33.6906 20.2549 33.7565 21.6361 35.3348C23.7879 37.7679 24.3018 40.2339 23.1455 42.5686C22.2462 44.4099 22.3427 45.6592 23.6274 48.1912C24.3018 49.5393 24.7514 50.8874 24.7514 51.6108C24.7514 52.3672 25.1689 53.5836 25.8435 54.8332C26.4536 55.9511 27.0317 57.4307 27.1281 58.1212C27.2567 58.8117 27.5457 59.4364 27.7705 59.5351C28.3807 59.7653 33.7766 58.7129 34.5793 58.2199C35.7036 57.4636 38.1444 54.307 38.3692 53.3205C38.4656 52.8273 38.7226 52.4328 38.9152 52.4328C39.0758 52.4328 39.5898 52.0711 40.0072 51.6437C40.6176 50.9861 40.746 50.6572 40.5854 49.5063C40.3606 47.8952 40.6176 47.5336 42.8978 46.2184C45.5637 44.6731 45.8207 43.7194 44.6323 39.2807C44.1826 37.6365 44.0221 36.3872 44.1505 35.7622C44.311 35.2034 45.7243 33.5263 47.8761 31.3893C51.1521 28.1339 51.377 27.8051 52.0194 25.6679C52.4047 24.4513 52.6937 23.2347 52.6937 23.0046C52.6937 22.2811 51.9552 22.2483 49.9637 22.873C47.3942 23.6951 47.0411 23.6622 46.6558 22.5771C46.4951 22.051 45.4995 20.6701 44.5036 19.5192C43.476 18.3684 42.2554 16.5271 41.7416 15.442C41.2598 14.3569 40.5532 13.0417 40.1678 12.5485C39.7823 12.0554 39.397 11.0031 39.3006 10.2468C39.0439 8.33975 38.4336 7.71503 36.7957 7.71503C35.832 7.71503 35.3501 7.55061 35.2217 7.18892C35.0611 6.79437 34.74 6.69572 34.0013 6.79437C33.4231 6.89302 32.4597 6.76147 31.8816 6.49844C30.3719 5.87372 29.4727 6.03812 29.2479 7.05741C28.9909 8.04383 28.2843 8.01096 26.839 6.89302C26.2931 6.46557 25.2974 5.90659 24.5908 5.67644C23.4025 5.28186 23.3062 5.15034 23.0492 3.60494C22.6316 1.07313 21.7966 0.514158 20.3514 1.76362ZM20.2549 3.27613C20.2549 3.90088 17.7498 7.15606 16.9468 7.55061C16.0797 8.01096 15.7906 7.97806 13.2212 7.18892C11.7117 6.69572 10.3948 6.26828 10.3306 6.20251C9.97739 5.87372 11.4547 4.75579 12.2577 4.75579C12.7395 4.75579 13.5424 4.59137 14.0562 4.3612C15.5979 3.70359 20.2549 2.88156 20.2549 3.27613ZM22.5674 4.92017C22.6316 5.7422 22.8886 5.97234 24.1412 6.39979C24.9441 6.69572 26.1646 7.35334 26.839 7.81368C27.5457 8.30689 28.3485 8.70144 28.6055 8.70144C29.2801 8.70144 29.8904 8.04383 29.8904 7.32048C29.8904 6.99164 30.0829 6.72861 30.3077 6.72861C30.7253 6.76147 33.0699 7.97806 32.7807 8.04383C32.6846 8.07672 30.4683 8.6686 27.8027 9.35907C24.1734 10.2797 22.8886 10.5099 22.5996 10.214C22.4069 10.0166 22.15 8.37263 22.0215 6.5642C21.8608 4.29544 21.893 3.37478 22.1178 3.60494C22.3105 3.76935 22.5032 4.3612 22.5674 4.92017ZM21.2185 10.0825C20.9295 10.5099 18.7133 9.22754 18.5206 8.53708C18.4243 8.10962 18.8096 7.15606 19.709 5.77507L21.058 3.63782L21.2185 6.72861C21.3149 8.43839 21.3149 9.95094 21.2185 10.0825ZM15.7586 9.0631C15.7586 9.42483 12.868 11.0031 12.2256 11.0031C11.6475 11.0031 10.0737 8.01096 10.3948 7.48486C10.5875 7.15606 15.7586 8.70144 15.7586 9.0631ZM10.2021 9.65496C10.5555 10.5428 10.7802 11.4306 10.6518 11.5949C10.427 11.9895 3.93923 13.8309 3.71441 13.5678C3.29689 13.1732 4.99913 10.9373 6.28381 10.1811C7.02252 9.72073 7.88971 9.0631 8.21092 8.70144C9.0781 7.71503 9.46351 7.87945 10.2021 9.65496ZM38.3372 9.85225C38.4978 10.5756 38.851 11.6935 39.1722 12.3512L39.7505 13.5349L37.9518 13.7323C36.9562 13.8637 35.4788 14.0281 34.6435 14.1597C32.8451 14.4227 32.7807 14.2583 33.648 11.4306C34.2904 9.29331 35.543 8.33975 37.4378 8.47131C37.9195 8.53708 38.1444 8.86589 38.3372 9.85225ZM32.8771 11.2661C32.0422 13.9952 31.1749 14.6857 28.1237 14.883C26.6143 14.9816 25.7149 14.9159 25.5865 14.6529C25.458 14.4556 25.1047 14.2911 24.8156 14.2911C24.1734 14.2583 22.7923 12.2197 23.1135 11.7265C23.3704 11.2661 32.8771 8.7672 33.1983 9.03026C33.3589 9.16178 33.1983 10.1811 32.8771 11.2661ZM19.8695 10.6085C20.2549 10.8387 20.5761 11.1347 20.5761 11.2661C20.5441 11.6607 17.3965 12.943 17.2038 12.6142C16.9468 12.2197 15.6301 12.2526 15.2447 12.6471C14.8593 13.0417 13.1891 12.4498 13.1891 11.9567C13.1891 11.8251 13.7993 11.3647 14.5701 10.9373C16.0797 10.0825 18.617 9.91802 19.8695 10.6085ZM21.8608 12.6471C22.5674 12.6471 23.7558 14.4885 23.5631 15.2447C23.4347 15.7708 15.8548 20.7358 15.5979 20.4728C15.5336 20.407 15.6301 19.2561 15.8228 17.908C16.1118 16.001 16.3688 15.2776 17.0111 14.5871C18.1031 13.5021 20.2871 12.2854 20.833 12.4828C21.09 12.5814 21.5396 12.6471 21.8608 12.6471ZM10.0415 15.442C9.49554 16.6257 8.82116 17.5792 8.56421 17.5792C8.05033 17.5792 3.87502 14.9488 3.87502 14.6529C3.87502 14.2911 10.4591 12.7787 10.7802 13.0417C10.9409 13.2061 10.684 14.1597 10.0415 15.442ZM15.084 14.3569C15.6622 15.3104 14.8913 20.144 14.1205 20.3742C13.4139 20.6042 10.5233 19.0261 10.2343 18.2368C9.91315 17.3492 11.4548 13.8637 12.3219 13.4363C13.1891 13.0417 14.5701 13.5021 15.084 14.3569ZM40.0394 14.5542C40.232 14.6857 40.5532 15.3105 40.778 15.968C40.9708 16.6257 42.1593 18.3684 43.3797 19.8809C44.6323 21.3605 45.6279 22.6758 45.6279 22.8073C45.6279 23.2676 48.0689 24.3855 48.8397 24.254C50.9915 23.9252 51.2486 23.958 51.1521 24.6487C50.895 26.5886 50.0921 27.7394 46.8163 30.863C42.9943 34.5128 42.5766 35.6637 43.6367 39.7736C43.7973 40.497 44.0221 41.6479 44.1182 42.3055C44.311 43.588 44.2147 43.7194 41.1314 46.1196C40.6176 46.5471 40.1678 47.1061 40.1678 47.3693C40.1678 47.665 40.0394 47.7637 39.8466 47.665C39.654 47.5336 39.5256 48.0597 39.5256 48.9804C39.5256 50.0325 39.3651 50.6243 38.9152 51.0191C38.562 51.3148 38.3372 51.6766 38.4336 51.8081C38.4978 51.9724 38.2731 52.2355 37.9195 52.4328C37.5664 52.63 37.2774 52.9918 37.2774 53.222C37.2774 53.4522 36.5386 54.4714 35.6394 55.4909C33.9691 57.3977 33.3267 57.6937 30.3077 58.1541C28.7019 58.3842 28.1237 57.9568 27.6421 56.0496C27.4493 55.3262 27.1923 54.7344 27.0639 54.7344C26.7106 54.7344 26.1003 52.926 25.8755 51.1834C25.7792 50.427 25.2332 48.9804 24.7193 47.961C23.5309 45.7909 23.4989 45.0017 24.3981 42.2726C24.8156 41.089 25.0083 39.9382 24.8799 39.6422C24.7514 39.3462 24.6229 38.8532 24.5908 38.5242C24.4945 37.6694 23.7879 36.3213 22.7281 35.0391C22.2142 34.447 21.6681 33.5922 21.4754 33.1647C20.9937 32.0797 21.7645 31.5206 23.9163 31.4221C25.2332 31.3893 25.7149 31.192 26.2931 30.5343C26.6785 30.074 26.9997 29.4162 26.9997 29.0546C26.9997 28.7259 27.1281 28.4299 27.2567 28.4299C27.7705 28.4299 26.4215 25.0103 25.5865 24.0567C25.1369 23.5635 24.7514 23.0704 24.7514 23.0046C24.7514 22.6758 25.3616 22.8402 25.7792 23.2676C26.0682 23.5635 27.0639 23.728 28.8945 23.728C31.7532 23.6951 32.4597 23.3663 33.3912 21.6235C33.9372 20.5384 33.2305 16.5928 32.3954 16.001C31.2391 15.146 31.9457 14.8502 35.286 14.7844C37.0845 14.7516 38.6585 14.6199 38.7868 14.5213C39.0439 14.2254 39.5898 14.2254 40.0394 14.5542ZM5.70572 16.9545C6.82982 17.7108 7.72911 18.467 7.72911 18.6973C7.72911 18.8945 6.605 19.5192 5.22395 20.0782L2.75088 21.0646L2.71877 18.3355C2.65454 15.0474 2.78301 15.0145 5.70572 16.9545ZM31.3678 16.2311C31.8816 16.6585 32.1705 17.4478 32.4275 19.1575C32.9093 22.3798 32.6201 22.6758 28.9267 22.6758C25.3937 22.6758 25.0727 22.3798 25.0727 19.289C25.0727 16.2311 25.6186 15.738 29.2479 15.6722C30.2115 15.6392 30.9179 15.8366 31.3678 16.2311ZM24.366 19.2233C24.4303 21.1304 24.366 21.6893 23.9485 21.9195C23.6916 22.0839 23.4667 22.4127 23.4667 22.6429C23.4667 23.2018 17.782 26.8187 17.2359 26.5886C16.6899 26.3584 15.7586 23.2018 15.9513 22.1825C16.0797 21.5578 17.0111 20.8016 19.8695 18.9931C21.925 17.6779 23.7879 16.6585 23.9485 16.7244C24.1412 16.7572 24.3017 17.908 24.366 19.2233ZM7.21523 21.4263C6.73346 22.314 6.09111 23.3991 5.83417 23.8923C5.54511 24.4185 5.06337 24.813 4.77431 24.813C4.13194 24.813 2.81512 23.0374 2.9757 22.314C3.07207 21.8537 6.70136 19.9795 7.66489 19.9137C7.95394 19.8809 7.82547 20.407 7.21523 21.4263ZM12.0649 20.6042C12.868 20.9989 13.5103 21.4263 13.5103 21.5249C13.5103 21.7551 6.38018 25.2075 6.2196 25.0432C5.93053 24.7144 8.91743 20.2097 9.49554 20.111C9.84884 20.0454 10.2343 19.9467 10.3628 19.9137C10.4913 19.9137 11.2621 20.2097 12.0649 20.6042ZM14.5381 22.9059C15.1162 23.3991 16.144 26.3913 15.887 26.8516C15.4694 27.5421 12.7715 28.4299 11.7438 28.2326C11.1979 28.1339 10.1059 28.2326 9.33496 28.4299C8.05025 28.7915 7.92178 28.7586 7.02252 27.9037C6.50863 27.3777 6.15536 26.7529 6.18747 26.5228C6.25169 26.1611 13.1569 22.5771 13.8635 22.5113C13.96 22.5113 14.2489 22.7086 14.5381 22.9059ZM24.7514 24.254C24.7835 24.1225 25.201 25.0761 25.7149 26.4242C26.6143 28.7259 26.6143 28.8902 26.1003 29.6137C25.6828 30.2054 25.2332 30.3698 24.2697 30.4027C23.5631 30.4027 22.6959 30.5014 22.3427 30.5999C21.8288 30.7316 21.6039 30.5343 21.3149 29.778C21.0258 28.9561 20.7688 28.7586 20.0302 28.7586C19.0024 28.7586 17.7177 27.9696 18.0709 27.5749C18.1994 27.4435 19.5163 26.5556 20.9615 25.6021C23.017 24.254 23.7237 23.958 24.1734 24.1883C24.4945 24.3527 24.7514 24.3855 24.7514 24.254Z" fill="#00A0F6"/>
<path d="M49.8353 42.8975C49.1929 43.6207 48.5185 44.2127 48.3257 44.2127C47.5871 44.2127 46.7521 45.6264 46.6876 46.9745C46.6556 47.6979 46.527 49.0131 46.4308 49.8353C46.1416 51.8081 46.6234 52.7617 47.8761 52.7617C48.6149 52.7617 49.0003 52.5315 49.4499 51.7422C50.4132 50.0984 52.4366 43.5552 52.2441 42.7329C51.9228 41.4177 51.1199 41.4835 49.8353 42.8975ZM50.638 45.3962C50.3813 47.5336 48.6469 51.1175 47.9082 51.1175C47.4265 51.1175 47.33 50.8544 47.33 49.8023C47.33 49.0131 47.4584 48.5857 47.6512 48.7174C47.8438 48.8159 47.8761 48.7503 47.7477 48.5527C47.2658 47.7308 48.165 45.6264 49.4177 44.7715C50.06 44.3111 50.6703 43.9167 50.7345 43.9167C50.7987 43.8838 50.7666 44.5743 50.638 45.3962Z" fill="#00A0F6"/>
</g>
</g>
<path d="M70.5415 23.2064H67.8288L72.7679 8.76244H75.9055L80.8514 23.2064H78.1386L74.3915 11.7246H74.2818L70.5415 23.2064ZM70.6307 17.5432H78.0291V19.6448H70.6307V17.5432ZM82.6991 23.2064V8.76244H91.6871V10.9559H85.2407V14.8772H91.0709V17.0706H85.2407V23.2064H82.6991ZM94.0024 23.2064V8.76244H99.2638C100.342 8.76244 101.246 8.95522 101.976 9.34077C102.712 9.72633 103.267 10.2671 103.641 10.963C104.02 11.6541 104.21 12.4605 104.21 13.382C104.21 14.3083 104.018 15.1123 103.634 15.7941C103.255 16.4712 102.695 16.9953 101.956 17.3669C101.216 17.7335 100.307 17.9169 99.2294 17.9169H95.4824V15.7447H98.887C99.5171 15.7447 100.033 15.6553 100.435 15.4767C100.837 15.2933 101.134 15.0277 101.326 14.6797C101.522 14.3271 101.62 13.8945 101.62 13.382C101.62 12.8695 101.522 12.4322 101.326 12.0702C101.129 11.7035 100.83 11.4261 100.428 11.238C100.026 11.0452 99.5081 10.9488 98.8731 10.9488H96.544V23.2064H94.0024ZM101.25 16.6615L104.723 23.2064H101.887L98.476 16.6615H101.25ZM109.09 8.76244V23.2064H106.549V8.76244H109.09ZM123.851 13.6359H121.289C121.216 13.2033 121.082 12.8201 120.886 12.4863C120.689 12.1478 120.444 11.861 120.152 11.6259C119.86 11.3908 119.526 11.2145 119.152 11.0969C118.782 10.9747 118.382 10.9136 117.953 10.9136C117.191 10.9136 116.515 11.111 115.926 11.5059C115.336 11.8963 114.875 12.4698 114.541 13.2268C114.208 13.9791 114.041 14.8983 114.041 15.9844C114.041 17.0894 114.208 18.0204 114.541 18.7774C114.88 19.5296 115.341 20.0985 115.926 20.4841C116.515 20.865 117.188 21.0554 117.946 21.0554C118.367 21.0554 118.759 20.9989 119.124 20.8862C119.495 20.7685 119.826 20.597 120.118 20.3713C120.415 20.1456 120.663 19.8681 120.864 19.539C121.07 19.2099 121.212 18.8338 121.289 18.4106L123.851 18.4247C123.756 19.1111 123.547 19.7553 123.228 20.3571C122.913 20.959 122.5 21.4903 121.988 21.9511C121.476 22.4071 120.878 22.7644 120.193 23.0231C119.508 23.277 118.748 23.4039 117.912 23.4039C116.679 23.4039 115.578 23.1101 114.61 22.5224C113.641 21.9346 112.879 21.086 112.322 19.9763C111.765 18.8667 111.486 17.5361 111.486 15.9844C111.486 14.4282 111.768 13.0975 112.329 11.9926C112.89 10.883 113.655 10.0343 114.624 9.44656C115.592 8.85887 116.688 8.56499 117.912 8.56499C118.693 8.56499 119.419 8.6778 120.09 8.9035C120.762 9.1292 121.36 9.46068 121.885 9.89796C122.41 10.3305 122.842 10.8618 123.18 11.4919C123.523 12.1172 123.746 12.8319 123.851 13.6359ZM127.811 23.2064H125.098L130.037 8.76244H133.174L138.12 23.2064H135.408L131.661 11.7246H131.551L127.811 23.2064ZM127.9 17.5432H135.298V19.6448H127.9V17.5432ZM149.509 23.2064H144.753V8.76244H149.603C150.997 8.76244 152.192 9.05165 153.193 9.62998C154.197 10.2035 154.97 11.0287 155.51 12.1055C156.048 13.1822 156.317 14.4705 156.317 15.9704C156.317 17.4749 156.045 18.768 155.502 19.8494C154.964 20.9308 154.184 21.7607 153.166 22.3389C152.152 22.9173 150.933 23.2064 149.509 23.2064ZM147.295 20.9426H149.384C150.361 20.9426 151.177 20.7591 151.83 20.3925C152.483 20.0209 152.974 19.4685 153.303 18.7351C153.631 17.9968 153.797 17.0753 153.797 15.9704C153.797 14.8655 153.631 13.9485 153.303 13.2198C152.974 12.4863 152.487 11.9385 151.844 11.5765C151.204 11.2098 150.409 11.0264 149.46 11.0264H147.295V20.9426ZM158.732 23.2064V8.76244H167.856V10.9559H161.273V14.8772H167.384V17.0706H161.273V21.0131H167.912V23.2064H158.732ZM172.327 8.76244L175.978 20.1314H176.121L179.766 8.76244H182.56L177.615 23.2064H174.478L169.538 8.76244H172.327ZM196.192 15.9844C196.192 17.5408 195.908 18.8737 195.342 19.9834C194.781 21.0883 194.013 21.9346 193.041 22.5224C192.072 23.1101 190.974 23.4039 189.745 23.4039C188.517 23.4039 187.416 23.1101 186.443 22.5224C185.475 21.9299 184.709 21.0812 184.142 19.9763C183.58 18.8667 183.299 17.5361 183.299 15.9844C183.299 14.4282 183.58 13.0975 184.142 11.9926C184.709 10.883 185.475 10.0343 186.443 9.44656C187.416 8.85887 188.517 8.56499 189.745 8.56499C190.974 8.56499 192.072 8.85887 193.041 9.44656C194.013 10.0343 194.781 10.883 195.342 11.9926C195.908 13.0975 196.192 14.4282 196.192 15.9844ZM193.636 15.9844C193.636 14.8889 193.469 13.965 193.135 13.2128C192.808 12.4558 192.35 11.8845 191.766 11.4989C191.182 11.1087 190.508 10.9136 189.745 10.9136C188.983 10.9136 188.309 11.1087 187.724 11.4989C187.14 11.8845 186.68 12.4558 186.347 13.2128C186.019 13.965 185.855 14.8889 185.855 15.9844C185.855 17.08 186.019 18.0062 186.347 18.7632C186.68 19.5155 187.14 20.0867 187.724 20.4769C188.309 20.8626 188.983 21.0554 189.745 21.0554C190.508 21.0554 191.182 20.8626 191.766 20.4769C192.35 20.0867 192.808 19.5155 193.135 18.7632C193.469 18.0062 193.636 17.08 193.636 15.9844ZM198.594 23.2064V8.76244H203.856C204.933 8.76244 205.837 8.96934 206.568 9.38314C207.303 9.79685 207.859 10.3658 208.232 11.0899C208.612 11.8093 208.801 12.6273 208.801 13.5442C208.801 14.4705 208.612 15.2933 208.232 16.0127C207.853 16.7321 207.294 17.2986 206.554 17.7124C205.815 18.1214 204.903 18.326 203.822 18.326H200.334V16.1749H203.478C204.109 16.1749 204.625 16.062 205.027 15.8363C205.428 15.6106 205.726 15.3004 205.917 14.9054C206.114 14.5105 206.212 14.0567 206.212 13.5442C206.212 13.0317 206.114 12.5804 205.917 12.1901C205.726 11.7998 205.427 11.4966 205.021 11.2803C204.618 11.0593 204.099 10.9488 203.464 10.9488H201.136V23.2064H198.594ZM218.634 12.7331C218.569 12.1172 218.301 11.6376 217.825 11.2944C217.355 10.9512 216.742 10.7795 215.99 10.7795C215.459 10.7795 215.005 10.8618 214.626 11.0264C214.246 11.191 213.957 11.4143 213.756 11.6964C213.555 11.9785 213.451 12.3006 213.447 12.6626C213.447 12.9636 213.513 13.2245 213.646 13.4455C213.784 13.6664 213.968 13.8545 214.201 14.0097C214.434 14.1602 214.692 14.287 214.975 14.3906C215.258 14.494 215.543 14.581 215.831 14.6515L217.147 14.99C217.676 15.117 218.186 15.2886 218.674 15.5049C219.167 15.7211 219.608 15.994 219.996 16.323C220.39 16.6522 220.699 17.0493 220.928 17.5149C221.157 17.9804 221.271 18.5259 221.271 19.1512C221.271 19.9975 221.061 20.7427 220.64 21.3869C220.22 22.0263 219.613 22.5271 218.819 22.889C218.028 23.2463 217.072 23.4252 215.949 23.4252C214.857 23.4252 213.909 23.251 213.105 22.9032C212.305 22.5552 211.679 22.0474 211.227 21.3798C210.78 20.7122 210.539 19.8988 210.502 18.9395H213.003C213.038 19.4427 213.19 19.8612 213.454 20.1949C213.719 20.5288 214.065 20.778 214.489 20.9426C214.917 21.1072 215.397 21.1894 215.927 21.1894C216.48 21.1894 216.964 21.1047 217.38 20.9355C217.801 20.7616 218.128 20.5217 218.367 20.2161C218.604 19.9057 218.725 19.5436 218.729 19.13C218.725 18.7538 218.617 18.4436 218.408 18.199C218.197 17.9499 217.902 17.7429 217.523 17.5784C217.148 17.4092 216.71 17.2586 216.209 17.127L214.612 16.7038C213.457 16.3982 212.543 15.935 211.872 15.3144C211.205 14.6891 210.872 13.8592 210.872 12.8249C210.872 11.9738 211.095 11.2286 211.543 10.5891C211.995 9.94969 212.609 9.45367 213.386 9.10104C214.162 8.74364 215.042 8.56499 216.023 8.56499C217.019 8.56499 217.891 8.74364 218.641 9.10104C219.393 9.45367 219.986 9.94501 220.414 10.575C220.844 11.2004 221.066 11.9197 221.078 12.7331H218.634ZM76.3644 41.1052C76.3005 40.4892 76.031 40.0097 75.556 39.6665C75.0857 39.3233 74.4737 39.1516 73.7202 39.1516C73.1904 39.1516 72.736 39.2339 72.3569 39.3985C71.9779 39.563 71.6879 39.7863 71.4869 40.0685C71.286 40.3507 71.1832 40.6726 71.1787 41.0347C71.1787 41.3356 71.245 41.5966 71.3774 41.8176C71.5143 42.0385 71.6992 42.2266 71.9323 42.3818C72.1651 42.5322 72.4232 42.6591 72.7064 42.7627C72.9895 42.8661 73.2748 42.9531 73.5626 43.0236L74.8779 43.3621C75.4076 43.489 75.9169 43.6607 76.4054 43.877C76.8987 44.0932 77.3394 44.366 77.7276 44.6951C78.1204 45.0243 78.431 45.4214 78.6593 45.887C78.8877 46.3525 79.0019 46.8979 79.0019 47.5233C79.0019 48.3696 78.7917 49.1148 78.3716 49.759C77.9513 50.3984 77.344 50.8991 76.5494 51.2611C75.7593 51.6185 74.8026 51.7972 73.679 51.7972C72.5875 51.7972 71.64 51.6231 70.8361 51.2753C70.0369 50.9273 69.4113 50.4195 68.9592 49.7519C68.5116 49.0843 68.2695 48.2709 68.233 47.3116H70.7333C70.77 47.8148 70.9206 48.2333 71.1856 48.567C71.4504 48.9009 71.7951 49.1501 72.2199 49.3147C72.6492 49.4792 73.1286 49.5615 73.6585 49.5615C74.2112 49.5615 74.6952 49.4768 75.1108 49.3076C75.5309 49.1337 75.8599 48.8938 76.0973 48.5882C76.3347 48.2778 76.4558 47.9158 76.4603 47.5021C76.4558 47.1259 76.3484 46.8157 76.1383 46.5711C75.9283 46.322 75.6337 46.115 75.2547 45.9505C74.8802 45.7812 74.4417 45.6307 73.9393 45.4991L72.3433 45.0759C71.1878 44.7703 70.2743 44.3071 69.6031 43.6865C68.9363 43.0612 68.6029 42.2313 68.6029 41.197C68.6029 40.346 68.8267 39.6006 69.2743 38.9613C69.7264 38.3218 70.3406 37.8257 71.1171 37.4731C71.8934 37.1158 72.7725 36.9371 73.7544 36.9371C74.75 36.9371 75.6223 37.1158 76.3713 37.4731C77.1248 37.8257 77.7163 38.3171 78.1455 38.9471C78.5749 39.5724 78.7963 40.2918 78.8099 41.1052H76.3644ZM90.1115 37.1345H92.6531V46.5711C92.6531 47.6055 92.4153 48.5153 91.9405 49.3005C91.4697 50.0857 90.8078 50.6994 89.9538 51.1412C89.0997 51.5785 88.1019 51.7972 86.9602 51.7972C85.8136 51.7972 84.8141 51.5785 83.9601 51.1412C83.1061 50.6994 82.4433 50.0857 81.9734 49.3005C81.5027 48.5153 81.2675 47.6055 81.2675 46.5711V37.1345H83.8089V46.3525C83.8089 46.9542 83.9372 47.4903 84.193 47.9605C84.4529 48.4307 84.8182 48.7997 85.2889 49.0678C85.7589 49.3311 86.3162 49.4627 86.9602 49.4627C87.6042 49.4627 88.1615 49.3311 88.6315 49.0678C89.1071 48.7997 89.4724 48.4307 89.7274 47.9605C89.9832 47.4903 90.1115 46.9542 90.1115 46.3525V37.1345ZM95.4154 37.1345H98.5258L102.69 47.6008H102.855L107.02 37.1345H110.13V51.5785H107.691V41.6553H107.561L103.683 51.5362H101.862L97.984 41.6342H97.854V51.5785H95.4154V37.1345ZM112.898 37.1345H116.007L120.173 47.6008H120.337L124.502 37.1345H127.612V51.5785H125.174V41.6553H125.044L121.166 51.5362H119.344L115.466 41.6342H115.336V51.5785H112.898V37.1345ZM132.921 37.1345V51.5785H130.379V37.1345H132.921ZM135.056 39.328V37.1345H146.251V39.328H141.915V51.5785H139.394V39.328H135.056Z" fill="white"/>
</svg>